<svg width="80" height="78" viewBox="0 0 80 78" fill="none" xmlns="http://www.w3.org/2000/svg">
<g clip-path="url(#clip0_438_20)">
<path d="M45.3516 2.63118C45.3516 1.18241 46.7839 0 48.5677 0C50.3516 0 51.7839 1.17591 51.7839 2.63118V14.1434C51.7839 15.5922 50.3516 16.7746 48.5677 16.7746C46.7839 16.7746 45.3516 15.5987 45.3516 14.1434V2.63118ZM59.4857 37.051C62.2591 37.051 64.9089 37.6032 67.3307 38.6037C69.8503 39.6432 72.1094 41.1634 73.9974 43.0475C75.8854 44.9315 77.4089 47.1924 78.4505 49.6937C79.4531 52.1104 80.0065 54.7546 80.0065 57.5222C80.0065 60.2899 79.4531 62.934 78.4505 65.3508C77.4089 67.8651 75.8854 70.1194 73.9974 72.0035C72.1094 73.8876 69.8438 75.4078 67.3372 76.4473C64.9154 77.4478 62.2656 78 59.4922 78C56.7188 78 54.069 77.4478 51.6471 76.4473C49.1276 75.4078 46.8685 73.8876 44.9805 72.0035C43.0924 70.1194 41.569 67.8586 40.5273 65.3508C39.5247 62.934 38.9714 60.2899 38.9714 57.5222C38.9714 54.7546 39.5247 52.1104 40.5273 49.6937C41.569 47.1794 43.0924 44.925 44.9805 43.041C46.8685 41.1569 49.1341 39.6367 51.6406 38.5972C54.0625 37.6032 56.7057 37.051 59.4857 37.051ZM57.9492 48.966C57.9492 48.4723 58.151 48.024 58.4766 47.6992C58.8021 47.3743 59.2513 47.1729 59.7526 47.1729C60.2539 47.1729 60.7031 47.3743 61.0286 47.6992C61.3542 48.024 61.556 48.4723 61.556 48.9725V58.5487L68.7305 62.7976L68.7891 62.8366C69.1862 63.09 69.4466 63.4733 69.5508 63.8956C69.6615 64.3373 69.6094 64.8181 69.3685 65.2339L69.3555 65.2534C69.3425 65.2794 69.3294 65.2989 69.3099 65.3183C69.056 65.7082 68.6719 65.968 68.2552 66.072C67.8125 66.1824 67.3307 66.1304 66.9141 65.8901L58.8932 61.1539C58.6133 61.0045 58.3789 60.7771 58.2096 60.5107C58.0404 60.2379 57.9427 59.9195 57.9427 59.5817L57.9492 48.966ZM71.4518 45.5812C69.8893 44.022 68.0273 42.7681 65.9635 41.917C63.9714 41.092 61.7839 40.6437 59.4857 40.6437C57.1875 40.6437 55 41.0984 53.0078 41.917C50.944 42.7681 49.082 44.022 47.5195 45.5812C45.957 47.1404 44.7005 48.9985 43.8477 51.058C43.0208 53.046 42.5716 55.2289 42.5716 57.5222C42.5716 59.8156 43.0273 61.9985 43.8477 63.9865C44.7005 66.046 45.957 67.9041 47.5195 69.4633C49.082 71.0225 50.944 72.2764 53.0078 73.1274C55 73.9525 57.1875 74.4008 59.4857 74.4008C61.7839 74.4008 63.9714 73.946 65.9635 73.1274C68.0273 72.2764 69.8893 71.0225 71.4518 69.4633C74.5182 66.4033 76.4062 62.1869 76.4062 57.5222C76.4062 55.2289 75.9505 53.046 75.1302 51.058C74.2708 48.9985 73.0143 47.1404 71.4518 45.5812ZM8.75651 37.2654C8.57422 37.2654 8.41146 36.4663 8.41146 35.4853C8.41146 34.5042 8.55469 33.7116 8.75651 33.7116H17.5326C17.7148 33.7116 17.8776 34.5107 17.8776 35.4853C17.8776 36.4663 17.7344 37.2654 17.5326 37.2654H8.75651ZM22.7474 37.2654C22.5651 37.2654 22.4023 36.4663 22.4023 35.4853C22.4023 34.5042 22.5456 33.7116 22.7474 33.7116H31.5234C31.7057 33.7116 31.8685 34.5107 31.8685 35.4853C31.8685 36.4663 31.7253 37.2654 31.5234 37.2654H22.7474ZM36.7383 37.2654C36.556 37.2654 36.3932 36.4663 36.3932 35.4853C36.3932 34.5042 36.5365 33.7116 36.7383 33.7116H45.5143C45.6966 33.7116 45.8594 34.5042 45.8594 35.4788C44.9805 36.0245 44.1341 36.6222 43.3268 37.2654H36.7383ZM8.77604 47.4523C8.59375 47.4523 8.43099 46.6532 8.43099 45.6722C8.43099 44.6912 8.57422 43.8921 8.77604 43.8921H17.5521C17.7344 43.8921 17.8971 44.6912 17.8971 45.6722C17.8971 46.6532 17.7539 47.4523 17.5521 47.4523H8.77604ZM22.7669 47.4523C22.5846 47.4523 22.4219 46.6532 22.4219 45.6722C22.4219 44.6912 22.5651 43.8921 22.7669 43.8921H31.543C31.7253 43.8921 31.888 44.6912 31.888 45.6722C31.888 46.6532 31.7448 47.4523 31.543 47.4523H22.7669ZM8.79557 57.6457C8.61328 57.6457 8.45052 56.8466 8.45052 55.8656C8.45052 54.8846 8.59375 54.0855 8.79557 54.0855H17.5716C17.7539 54.0855 17.9167 54.8846 17.9167 55.8656C17.9167 56.8466 17.7734 57.6457 17.5716 57.6457H8.79557ZM22.7865 57.6457C22.6042 57.6457 22.4414 56.8466 22.4414 55.8656C22.4414 54.8846 22.5846 54.0855 22.7865 54.0855H31.5625C31.7448 54.0855 31.9076 54.8846 31.9076 55.8656C31.9076 56.8466 31.7643 57.6457 31.5625 57.6457H22.7865ZM16.4648 2.63118C16.4648 1.18241 17.8971 0 19.681 0C21.4648 0 22.8971 1.17591 22.8971 2.63118V14.1434C22.8971 15.5922 21.4583 16.7746 19.681 16.7746C17.8971 16.7746 16.4648 15.5987 16.4648 14.1434V2.63118ZM3.54167 25.1684H64.7917V11.915C64.7917 11.4603 64.6094 11.064 64.3164 10.7716C64.0234 10.4793 63.6068 10.2974 63.1706 10.2974H57.2982C56.3151 10.2974 55.5143 9.49825 55.5143 8.51724C55.5143 7.53623 56.3151 6.73713 57.2982 6.73713H63.1706C64.6094 6.73713 65.8984 7.31534 66.8424 8.25737C67.7865 9.1994 68.3659 10.4858 68.3659 11.9215V32.9645C67.194 32.5617 65.9896 32.2369 64.7526 31.9965V28.7091H64.7917H3.54167V63.0315C3.54167 63.4863 3.72396 63.8826 4.01693 64.1749C4.3099 64.4673 4.72656 64.6492 5.16276 64.6492H34.2708C34.6029 65.8836 35.0195 67.0855 35.5208 68.2419H5.19531C3.76302 68.2419 2.46745 67.6637 1.52344 66.7216C0.579427 65.7861 0 64.4998 0 63.064V11.928C0 10.4988 0.579427 9.2059 1.52344 8.26387C2.46745 7.32184 3.75651 6.74363 5.19531 6.74363H11.4648C12.4479 6.74363 13.2487 7.54273 13.2487 8.52374C13.2487 9.50475 12.4479 10.3038 11.4648 10.3038H5.19531C4.73958 10.3038 4.34245 10.4858 4.04948 10.7781C3.75651 11.0705 3.57422 11.4863 3.57422 11.9215V25.1749H3.54167V25.1684ZM28.0404 10.2974C27.0573 10.2974 26.2565 9.49825 26.2565 8.51724C26.2565 7.53623 27.0573 6.73713 28.0404 6.73713H39.9935C40.9766 6.73713 41.7773 7.53623 41.7773 8.51724C41.7773 9.49825 40.9766 10.2974 39.9935 10.2974H28.0404Z" fill="white"/>
</g>
<defs>
<clipPath id="clip0_438_20">
<rect width="80" height="78" fill="white"/>
</clipPath>
</defs>
</svg>
