<svg width="80" height="77" viewBox="0 0 80 77" fill="none" xmlns="http://www.w3.org/2000/svg">
<path d="M6.3999 43.12C6.3999 60.9517 21.4735 75.4601 39.9999 75.4601C58.5263 75.4601 73.5999 60.9517 73.5999 43.12C73.5999 27.9464 62.6703 15.2137 47.9999 11.7456V4.62004H52.7999V1.54004H47.9999H31.9999H27.1999V4.62004H31.9999V11.7456C17.3295 15.2137 6.3999 27.9464 6.3999 43.12ZM70.3999 43.12C70.3999 58.7341 57.6175 71.493 41.5999 72.3015V67.7601H38.3999V72.3015C22.9167 71.5207 10.4927 59.5626 9.6815 44.66H14.3999V41.58H9.6815C10.4415 27.64 21.3583 16.2778 35.4431 14.225C35.9391 14.1526 36.4303 14.0572 36.9311 14.0094C37.2175 13.9817 37.5135 13.9863 37.8015 13.9663C39.2655 13.8662 40.7343 13.8662 42.1983 13.9663C42.4879 13.9863 42.7823 13.9817 43.0687 14.0094C43.5695 14.0572 44.0607 14.1542 44.5567 14.225C59.1599 16.3533 70.3999 28.4808 70.3999 43.12ZM35.1999 11.1096V4.62004H44.7999V11.1096C44.5023 11.0696 44.2031 11.0511 43.9039 11.0172C43.6175 10.9849 43.3311 10.9541 43.0415 10.9279C42.0303 10.8401 41.0159 10.78 39.9999 10.78C38.9839 10.78 37.9695 10.8401 36.9583 10.9279C36.6687 10.9525 36.3823 10.9849 36.0959 11.0172C35.7967 11.0511 35.4975 11.068 35.1999 11.1096Z" fill="white"/>
<path d="M66.731 12.7718L64.4683 14.9497L69.2686 19.5701L71.5313 17.3922L66.731 12.7718Z" fill="white"/>
<path d="M39.9999 18.48H38.3999V44.66H65.5999V43.12C65.5999 29.5341 54.1151 18.48 39.9999 18.48ZM41.5999 41.58V21.6139C52.6783 22.37 61.5583 30.917 62.3439 41.58H41.5999Z" fill="white"/>
</svg>
