<svg width="100" height="100" viewBox="0 0 100 100" fill="none" xmlns="http://www.w3.org/2000/svg">
<path d="M79.703 10.891H60.3961V7.4257C60.3961 7.03181 60.2396 6.65406 59.9611 6.37554C59.6826 6.09702 59.3048 5.94055 58.9109 5.94055H41.0891C40.6952 5.94055 40.3175 6.09702 40.039 6.37554C39.7605 6.65406 39.604 7.03181 39.604 7.4257V10.891H21.2872C20.8933 10.891 20.5155 11.0475 20.237 11.326C19.9585 11.6046 19.802 11.9823 19.802 12.3762V83.6633C19.802 84.0572 19.9585 84.435 20.237 84.7135C20.5155 84.992 20.8933 85.1485 21.2872 85.1485H79.703C80.0969 85.1485 80.4746 84.992 80.7532 84.7135C81.0317 84.435 81.1882 84.0572 81.1882 83.6633V12.3762C81.1882 11.9823 81.0317 11.6046 80.7532 11.326C80.4746 11.0475 80.0969 10.891 79.703 10.891ZM42.5743 8.91085H57.4258V14.8514H42.5743V8.91085ZM78.2179 82.1782H22.7723V13.8613H39.604V16.3366C39.604 16.7305 39.7605 17.1082 40.039 17.3868C40.3175 17.6653 40.6952 17.8217 41.0891 17.8217H58.9109C59.3048 17.8217 59.6826 17.6653 59.9611 17.3868C60.2396 17.1082 60.3961 16.7305 60.3961 16.3366V13.8613H78.2179V82.1782Z" fill="white"/>
<path d="M33.1683 33.6633H28.2178C27.8239 33.6633 27.4462 33.8198 27.1677 34.0983C26.8891 34.3768 26.7327 34.7546 26.7327 35.1485C26.7327 35.5424 26.8891 35.9201 27.1677 36.1986C27.4462 36.4772 27.8239 36.6336 28.2178 36.6336H33.1683C33.5622 36.6336 33.9399 36.4772 34.2185 36.1986C34.497 35.9201 34.6535 35.5424 34.6535 35.1485C34.6535 34.7546 34.497 34.3768 34.2185 34.0983C33.9399 33.8198 33.5622 33.6633 33.1683 33.6633Z" fill="white"/>
<path d="M40.0989 33.6633C39.705 33.6633 39.3273 33.8198 39.0488 34.0983C38.7702 34.3768 38.6138 34.7546 38.6138 35.1485C38.6138 35.5424 38.7702 35.9201 39.0488 36.1986C39.3273 36.4772 39.705 36.6336 40.0989 36.6336H72.7722C73.1661 36.6336 73.5438 36.4772 73.8224 36.1986C74.1009 35.9201 74.2573 35.5424 74.2573 35.1485C74.2573 34.7546 74.1009 34.3768 73.8224 34.0983C73.5438 33.8198 73.1661 33.6633 72.7722 33.6633H40.0989Z" fill="white"/>
<path d="M33.1683 46.5347H28.2178C27.8239 46.5347 27.4462 46.6911 27.1677 46.9697C26.8891 47.2482 26.7327 47.6259 26.7327 48.0198C26.7327 48.4137 26.8891 48.7915 27.1677 49.07C27.4462 49.3485 27.8239 49.505 28.2178 49.505H33.1683C33.5622 49.505 33.9399 49.3485 34.2185 49.07C34.497 48.7915 34.6535 48.4137 34.6535 48.0198C34.6535 47.6259 34.497 47.2482 34.2185 46.9697C33.9399 46.6911 33.5622 46.5347 33.1683 46.5347Z" fill="white"/>
<path d="M72.7722 46.5347H40.0989C39.705 46.5347 39.3273 46.6911 39.0488 46.9697C38.7702 47.2482 38.6138 47.6259 38.6138 48.0198C38.6138 48.4137 38.7702 48.7915 39.0488 49.07C39.3273 49.3485 39.705 49.505 40.0989 49.505H72.7722C73.1661 49.505 73.5438 49.3485 73.8224 49.07C74.1009 48.7915 74.2573 48.4137 74.2573 48.0198C74.2573 47.6259 74.1009 47.2482 73.8224 46.9697C73.5438 46.6911 73.1661 46.5347 72.7722 46.5347Z" fill="white"/>
<path d="M33.1683 59.4059H28.2178C27.8239 59.4059 27.4462 59.5624 27.1677 59.8409C26.8891 60.1194 26.7327 60.4971 26.7327 60.891C26.7327 61.2849 26.8891 61.6627 27.1677 61.9412C27.4462 62.2197 27.8239 62.3762 28.2178 62.3762H33.1683C33.5622 62.3762 33.9399 62.2197 34.2185 61.9412C34.497 61.6627 34.6535 61.2849 34.6535 60.891C34.6535 60.4971 34.497 60.1194 34.2185 59.8409C33.9399 59.5624 33.5622 59.4059 33.1683 59.4059Z" fill="white"/>
<path d="M72.7722 59.4059H40.0989C39.705 59.4059 39.3273 59.5624 39.0488 59.8409C38.7702 60.1194 38.6138 60.4971 38.6138 60.891C38.6138 61.2849 38.7702 61.6627 39.0488 61.9412C39.3273 62.2197 39.705 62.3762 40.0989 62.3762H72.7722C73.1661 62.3762 73.5438 62.2197 73.8224 61.9412C74.1009 61.6627 74.2573 61.2849 74.2573 60.891C74.2573 60.4971 74.1009 60.1194 73.8224 59.8409C73.5438 59.5624 73.1661 59.4059 72.7722 59.4059Z" fill="white"/>
</svg>
