<svg width="18" height="20" viewBox="0 0 18 20" fill="none" xmlns="http://www.w3.org/2000/svg">
<path d="M17.0001 5.95313L11.0001 0.754953C10.4501 0.26878 9.73803 0 9.0001 0C8.26216 0 7.55012 0.26878 7.0001 0.754953L1.00009 5.95313C0.682463 6.23387 0.428995 6.57825 0.256567 6.96336C0.0841385 7.34847 -0.00329256 7.76546 9.47941e-05 8.18657V16.8238C9.47941e-05 17.6101 0.316165 18.3642 0.878775 18.9202C1.44138 19.4762 2.20445 19.7886 3.0001 19.7886H15.0001C15.7957 19.7886 16.5588 19.4762 17.1214 18.9202C17.684 18.3642 18.0001 17.6101 18.0001 16.8238V8.17668C18.0021 7.75724 17.9139 7.34215 17.7416 6.95885C17.5692 6.57555 17.3165 6.23276 17.0001 5.95313V5.95313ZM11.0001 17.8121H7.0001V12.8709C7.0001 12.6088 7.10545 12.3574 7.29299 12.1721C7.48053 11.9867 7.73488 11.8826 8.0001 11.8826H10.0001C10.2653 11.8826 10.5197 11.9867 10.7072 12.1721C10.8947 12.3574 11.0001 12.6088 11.0001 12.8709V17.8121ZM16.0001 16.8238C16.0001 17.0859 15.8947 17.3373 15.7072 17.5226C15.5197 17.708 15.2653 17.8121 15.0001 17.8121H13.0001V12.8709C13.0001 12.0846 12.684 11.3305 12.1214 10.7745C11.5588 10.2185 10.7957 9.90612 10.0001 9.90612H8.0001C7.20445 9.90612 6.44138 10.2185 5.87877 10.7745C5.31617 11.3305 5.0001 12.0846 5.0001 12.8709V17.8121H3.0001C2.73488 17.8121 2.48052 17.708 2.29299 17.5226C2.10545 17.3373 2.0001 17.0859 2.0001 16.8238V8.17668C2.00027 8.03637 2.03069 7.8977 2.08931 7.7699C2.14794 7.6421 2.23343 7.52811 2.3401 7.4355L8.3401 2.24721C8.52258 2.08877 8.75719 2.00139 9.0001 2.00139C9.243 2.00139 9.47761 2.08877 9.6601 2.24721L15.6601 7.4355C15.7668 7.52811 15.8523 7.6421 15.9109 7.7699C15.9695 7.8977 15.9999 8.03637 16.0001 8.17668V16.8238Z" fill="#AEAEB1"/>
</svg>
